<svg width="174" height="40" viewBox="0 0 174 40" fill="none" xmlns="http://www.w3.org/2000/svg">
<g id="Logo-Qallpa" clip-path="url(#clip0_553_425)">
<g id="Group">
<path id="Vector" d="M42.1631 35.1706C42.3398 35.3517 42.4287 35.603 42.4287 35.9245V36.3086L41.8065 36.3393V35.9914C41.8065 35.6622 41.6847 35.4976 41.44 35.4976C41.3214 35.4976 41.2315 35.5338 41.1689 35.6074C41.1053 35.6809 41.0745 35.7884 41.0745 35.9311V38.262C41.0745 38.4046 41.1064 38.5122 41.1689 38.5857C41.2315 38.6592 41.3225 38.6954 41.44 38.6954C41.6836 38.6954 41.8065 38.5308 41.8065 38.2016V37.7253L42.4287 37.756V38.2685C42.4287 38.5901 42.3398 38.8414 42.1631 39.0224C41.9865 39.2035 41.7384 39.2935 41.4213 39.2935C41.1042 39.2935 40.8638 39.2046 40.6893 39.0246C40.5149 38.8458 40.4271 38.5934 40.4271 38.2674V35.9245C40.4271 35.5986 40.5149 35.3473 40.6893 35.1673C40.8638 34.9884 41.1085 34.8984 41.4213 34.8984C41.7341 34.8984 41.9854 34.9895 42.1631 35.1695V35.1706Z" fill="#323653"/>
<path id="Vector_2" d="M48.3929 35.1882C48.5784 35.3813 48.6706 35.6447 48.6706 35.9783V38.2115C48.6706 38.5451 48.5784 38.8085 48.3929 39.0016C48.2075 39.1947 47.9529 39.2913 47.6269 39.2913C47.301 39.2913 47.0464 39.1947 46.861 39.0016C46.6755 38.8085 46.5833 38.5451 46.5833 38.2115V35.9783C46.5833 35.6447 46.6755 35.3813 46.861 35.1882C47.0464 34.995 47.301 34.8984 47.6269 34.8984C47.9529 34.8984 48.2075 34.995 48.3929 35.1882ZM47.3306 35.6216C47.2637 35.705 47.2297 35.8257 47.2297 35.9849V38.206C47.2297 38.3651 47.2637 38.4858 47.3306 38.5692C47.3976 38.6526 47.4963 38.6943 47.6269 38.6943C47.7575 38.6943 47.8563 38.6526 47.9232 38.5692C47.9902 38.4858 48.0242 38.3651 48.0242 38.206V35.9849C48.0242 35.8257 47.9902 35.705 47.9232 35.6216C47.8563 35.5382 47.7575 35.4965 47.6269 35.4965C47.4963 35.4965 47.3976 35.5382 47.3306 35.6216Z" fill="#323653"/>
<path id="Vector_3" d="M55.067 39.2331H54.4327L53.5844 36.4018H53.5724V39.2331H52.9622V34.9609H53.6821L54.4448 37.5058H54.4569V34.9609H55.067V39.2331Z" fill="#323653"/>
<path id="Vector_4" d="M60.8949 35.1464C61.0617 35.3133 61.1451 35.5492 61.1451 35.8543V35.964L60.5229 36.0255V35.8663C60.5229 35.7445 60.4943 35.6512 60.4373 35.5887C60.3802 35.5261 60.299 35.4943 60.1937 35.4943C60.0883 35.4943 60.006 35.5261 59.95 35.5887C59.893 35.6523 59.8644 35.7445 59.8644 35.8663V35.9212C59.8644 36.0518 59.9028 36.1791 59.9808 36.3031C60.0576 36.4271 60.2002 36.5763 60.4076 36.7519C60.705 37.0043 60.9146 37.2315 61.0365 37.4356C61.1583 37.6386 61.2197 37.8669 61.2197 38.1193V38.3333C61.2197 38.6384 61.133 38.8743 60.9607 39.0411C60.7873 39.2079 60.5404 39.2913 60.2189 39.2913C59.8974 39.2913 59.6505 39.2079 59.4771 39.0411C59.3037 38.8743 59.2181 38.6384 59.2181 38.3333V38.0469L59.8403 37.9854V38.2905C59.8403 38.5593 59.9621 38.6932 60.2068 38.6932C60.4515 38.6932 60.5734 38.5593 60.5734 38.2905V38.15C60.5734 38.0117 60.5328 37.8801 60.4515 37.756C60.3703 37.632 60.2233 37.4806 60.0126 37.3017C59.7196 37.0537 59.5144 36.8288 59.3959 36.6279C59.2773 36.426 59.2192 36.1999 59.2192 35.9475V35.8565C59.2192 35.5514 59.3026 35.3154 59.4694 35.1486C59.6362 34.9818 59.8743 34.8984 60.1838 34.8984C60.4932 34.8984 60.7314 34.9818 60.8982 35.1486L60.8949 35.1464Z" fill="#323653"/>
<path id="Vector_5" d="M67.2482 38.2751C67.2482 38.6043 67.1593 38.8567 66.9826 39.0323C66.8059 39.2068 66.5579 39.2945 66.2408 39.2945C65.9236 39.2945 65.6888 39.2068 65.511 39.0323C65.3343 38.8578 65.2454 38.6054 65.2454 38.2751V34.9609H65.8676V38.2564C65.8676 38.5417 65.9895 38.6833 66.2342 38.6833C66.4789 38.6833 66.6007 38.5406 66.6007 38.2564V34.9609H67.2471V38.2751H67.2482Z" fill="#323653"/>
<path id="Vector_6" d="M72.2152 38.6229H73.295V39.2331H71.5677V34.9609H72.2141V38.6229H72.2152Z" fill="#323653"/>
<path id="Vector_7" d="M78.7888 35.5711H78.0996V39.2331H77.4522V35.5711H76.763V34.9609H78.7888V35.5711Z" fill="#323653"/>
<path id="Vector_8" d="M84.5884 35.1882C84.7738 35.3813 84.866 35.6447 84.866 35.9783V38.2115C84.866 38.5451 84.7738 38.8085 84.5884 39.0016C84.4029 39.1947 84.1483 39.2913 83.8224 39.2913C83.4965 39.2913 83.2419 39.1947 83.0564 39.0016C82.871 38.8085 82.7788 38.5451 82.7788 38.2115V35.9783C82.7788 35.6447 82.871 35.3813 83.0564 35.1882C83.2419 34.995 83.4965 34.8984 83.8224 34.8984C84.1483 34.8984 84.4029 34.995 84.5884 35.1882ZM83.5261 35.6216C83.4592 35.705 83.4251 35.8257 83.4251 35.9849V38.206C83.4251 38.3651 83.4592 38.4858 83.5261 38.5692C83.593 38.6526 83.6918 38.6943 83.8224 38.6943C83.953 38.6943 84.0518 38.6526 84.1187 38.5692C84.1856 38.4858 84.2197 38.3651 84.2197 38.206V35.9849C84.2197 35.8257 84.1856 35.705 84.1187 35.6216C84.0518 35.5382 83.953 35.4965 83.8224 35.4965C83.6918 35.4965 83.593 35.5382 83.5261 35.6216Z" fill="#323653"/>
<path id="Vector_9" d="M90.616 39.2331L90.1035 37.4268H89.805V39.2331H89.1575V34.9609H90.0914C90.4415 34.9609 90.7082 35.0531 90.8903 35.2386C91.0736 35.424 91.1647 35.6907 91.1647 36.0408V36.3458C91.1647 36.798 91.0121 37.1107 90.7071 37.2852L91.2985 39.232H90.6149L90.616 39.2331ZM89.8039 35.559V36.8287H90.0662C90.2209 36.8287 90.335 36.7859 90.4075 36.7003C90.481 36.6147 90.5172 36.483 90.5172 36.3041V36.0847C90.5172 35.9058 90.481 35.773 90.4075 35.6885C90.3339 35.6029 90.2198 35.5601 90.0662 35.5601H89.8039V35.559Z" fill="#323653"/>
<path id="Vector_10" d="M97.2494 35.559H96.0773V36.7672H97.0233V37.3653H96.0773V38.635H97.2494V39.2331H95.431V34.9609H97.2494V35.559Z" fill="#323653"/>
<path id="Vector_11" d="M102.924 35.1464C103.091 35.3133 103.174 35.5492 103.174 35.8543V35.964L102.552 36.0255V35.8663C102.552 35.7445 102.524 35.6512 102.467 35.5887C102.41 35.5261 102.328 35.4943 102.223 35.4943C102.118 35.4943 102.035 35.5261 101.979 35.5887C101.922 35.6523 101.894 35.7445 101.894 35.8663V35.9212C101.894 36.0518 101.932 36.1791 102.01 36.3031C102.087 36.4271 102.23 36.5763 102.437 36.7519C102.734 37.0043 102.944 37.2315 103.066 37.4356C103.188 37.6386 103.249 37.8669 103.249 38.1193V38.3333C103.249 38.6384 103.162 38.8743 102.99 39.0411C102.817 39.2079 102.57 39.2913 102.248 39.2913C101.927 39.2913 101.68 39.2079 101.506 39.0411C101.333 38.8743 101.247 38.6384 101.247 38.3333V38.0469L101.87 37.9854V38.2905C101.87 38.5593 101.991 38.6932 102.236 38.6932C102.481 38.6932 102.603 38.5593 102.603 38.2905V38.15C102.603 38.0117 102.562 37.8801 102.481 37.756C102.4 37.632 102.253 37.4806 102.042 37.3017C101.749 37.0537 101.544 36.8288 101.425 36.6279C101.307 36.426 101.248 36.1999 101.248 35.9475V35.8565C101.248 35.5514 101.332 35.3154 101.499 35.1486C101.665 34.9818 101.904 34.8984 102.213 34.8984C102.523 34.8984 102.761 34.9818 102.927 35.1486L102.924 35.1464Z" fill="#323653"/>
<path id="Vector_12" d="M113.62 35.1421C113.777 35.3045 113.855 35.5327 113.855 35.8257V35.8565C113.855 36.0562 113.807 36.2373 113.714 36.3997C113.621 36.5621 113.447 36.7695 113.195 37.0219L113.634 37.7056H113.646V37.0768L114.208 37.1075V37.8098C114.208 38.0743 114.175 38.2861 114.11 38.4441L114.635 39.2309H113.866L113.744 39.0356C113.569 39.2068 113.325 39.2924 113.012 39.2924C112.683 39.2924 112.422 39.2024 112.234 39.0213C112.045 38.8403 111.95 38.5835 111.95 38.2488V38.0962C111.95 37.8965 111.985 37.7111 112.056 37.5377C112.127 37.3643 112.248 37.181 112.419 36.9857C112.273 36.7454 112.172 36.5445 112.117 36.381C112.063 36.2186 112.035 36.0518 112.035 35.8806V35.8444C112.035 35.5349 112.112 35.3001 112.267 35.1399C112.421 34.9796 112.647 34.8984 112.944 34.8984C113.24 34.8984 113.462 34.9796 113.619 35.1421H113.62ZM112.763 37.5157C112.701 37.6255 112.658 37.7242 112.634 37.812C112.61 37.8998 112.598 37.992 112.598 38.0897V38.1873C112.598 38.3585 112.638 38.4858 112.717 38.5692C112.796 38.6526 112.904 38.6943 113.044 38.6943C113.198 38.6943 113.325 38.6438 113.422 38.5418L112.775 37.5168H112.763V37.5157ZM112.735 35.5876C112.685 35.6491 112.658 35.7379 112.658 35.8565V35.8872C112.658 35.9728 112.675 36.0639 112.707 36.1615C112.74 36.2592 112.795 36.3832 112.871 36.5336H112.883C113.022 36.3788 113.116 36.2559 113.168 36.1637C113.218 36.0726 113.244 35.9761 113.244 35.874V35.8433C113.244 35.7336 113.219 35.648 113.168 35.5865C113.117 35.5251 113.045 35.4954 112.951 35.4954C112.858 35.4954 112.786 35.5261 112.735 35.5865V35.5876Z" fill="#323653"/>
<path id="Vector_13" d="M125.474 39.2331H124.815L124.674 38.263H123.96L123.82 39.2331H123.173L123.912 34.9609H124.736L125.474 39.2331ZM124.309 35.8762L124.047 37.677H124.59L124.328 35.8762H124.309Z" fill="#323653"/>
<path id="Vector_14" d="M131.077 35.1464C131.243 35.3133 131.327 35.5492 131.327 35.8543V35.964L130.705 36.0255V35.8663C130.705 35.7445 130.676 35.6512 130.619 35.5887C130.562 35.5261 130.481 35.4943 130.375 35.4943C130.27 35.4943 130.188 35.5261 130.132 35.5887C130.075 35.6523 130.046 35.7445 130.046 35.8663V35.9212C130.046 36.0518 130.084 36.1791 130.162 36.3031C130.239 36.4271 130.382 36.5763 130.589 36.7519C130.887 37.0043 131.096 37.2315 131.218 37.4356C131.34 37.6386 131.401 37.8669 131.401 38.1193V38.3333C131.401 38.6384 131.315 38.8743 131.142 39.0411C130.969 39.2079 130.722 39.2913 130.401 39.2913C130.079 39.2913 129.832 39.2079 129.659 39.0411C129.485 38.8743 129.4 38.6384 129.4 38.3333V38.0469L130.022 37.9854V38.2905C130.022 38.5593 130.144 38.6932 130.388 38.6932C130.633 38.6932 130.755 38.5593 130.755 38.2905V38.15C130.755 38.0117 130.714 37.8801 130.633 37.756C130.552 37.632 130.405 37.4806 130.194 37.3017C129.901 37.0537 129.696 36.8288 129.577 36.6279C129.459 36.426 129.401 36.1999 129.401 35.9475V35.8565C129.401 35.5514 129.484 35.3154 129.651 35.1486C129.818 34.9818 130.056 34.8984 130.365 34.8984C130.675 34.8984 130.913 34.9818 131.08 35.1486L131.077 35.1464Z" fill="#323653"/>
<path id="Vector_15" d="M137.218 35.1882C137.404 35.3813 137.496 35.6447 137.496 35.9783V38.2115C137.496 38.5451 137.404 38.8085 137.218 39.0016C137.033 39.1947 136.778 39.2913 136.452 39.2913C136.126 39.2913 135.872 39.1947 135.686 39.0016C135.501 38.8085 135.409 38.5451 135.409 38.2115V35.9783C135.409 35.6447 135.501 35.3813 135.686 35.1882C135.872 34.995 136.126 34.8984 136.452 34.8984C136.778 34.8984 137.033 34.995 137.218 35.1882ZM136.156 35.6216C136.089 35.705 136.055 35.8257 136.055 35.9849V38.206C136.055 38.3651 136.089 38.4858 136.156 38.5692C136.223 38.6526 136.322 38.6943 136.452 38.6943C136.583 38.6943 136.681 38.6526 136.748 38.5692C136.815 38.4858 136.849 38.3651 136.849 38.206V35.9849C136.849 35.8257 136.815 35.705 136.748 35.6216C136.681 35.5382 136.583 35.4965 136.452 35.4965C136.322 35.4965 136.223 35.5382 136.156 35.6216Z" fill="#323653"/>
<path id="Vector_16" d="M143.456 35.1706C143.633 35.3517 143.722 35.603 143.722 35.9245V36.3086L143.099 36.3393V35.9914C143.099 35.6622 142.978 35.4976 142.733 35.4976C142.614 35.4976 142.524 35.5338 142.462 35.6074C142.398 35.6809 142.367 35.7884 142.367 35.9311V38.262C142.367 38.4046 142.399 38.5122 142.462 38.5857C142.524 38.6592 142.616 38.6954 142.733 38.6954C142.977 38.6954 143.099 38.5308 143.099 38.2016V37.7253L143.722 37.756V38.2685C143.722 38.5901 143.633 38.8414 143.456 39.0224C143.279 39.2035 143.031 39.2935 142.714 39.2935C142.397 39.2935 142.157 39.2046 141.982 39.0246C141.808 38.8458 141.72 38.5934 141.72 38.2674V35.9245C141.72 35.5986 141.808 35.3473 141.982 35.1673C142.157 34.9884 142.402 34.8984 142.714 34.8984C143.027 34.8984 143.278 34.9895 143.456 35.1695V35.1706Z" fill="#323653"/>
<path id="Vector_17" d="M148.578 39.2331H147.931V34.9609H148.578V39.2331Z" fill="#323653"/>
<path id="Vector_18" d="M155.005 39.2331H154.345L154.205 38.263H153.49L153.35 39.2331H152.703L153.442 34.9609H154.266L155.005 39.2331ZM153.839 35.8762L153.577 37.677H154.12L153.858 35.8762H153.839Z" fill="#323653"/>
<path id="Vector_19" d="M160.857 35.2397C161.041 35.4251 161.132 35.6918 161.132 36.0419V38.1533C161.132 38.5033 161.041 38.7711 160.857 38.9555C160.674 39.1409 160.408 39.2331 160.057 39.2331H159.13V34.9609H160.057C160.408 34.9609 160.674 35.0531 160.857 35.2386V35.2397ZM159.778 35.5601V38.6361H160.034C160.189 38.6361 160.303 38.5933 160.376 38.5077C160.449 38.4221 160.485 38.2904 160.485 38.1116V36.0858C160.485 35.9069 160.449 35.7741 160.376 35.6896C160.302 35.6051 160.188 35.5612 160.034 35.5612H159.778V35.5601Z" fill="#323653"/>
<path id="Vector_20" d="M167.165 35.1882C167.351 35.3813 167.443 35.6447 167.443 35.9783V38.2115C167.443 38.5451 167.351 38.8085 167.165 39.0016C166.98 39.1947 166.725 39.2913 166.399 39.2913C166.073 39.2913 165.819 39.1947 165.633 39.0016C165.448 38.8085 165.356 38.5451 165.356 38.2115V35.9783C165.356 35.6447 165.448 35.3813 165.633 35.1882C165.819 34.995 166.073 34.8984 166.399 34.8984C166.725 34.8984 166.98 34.995 167.165 35.1882ZM166.103 35.6216C166.036 35.705 166.002 35.8257 166.002 35.9849V38.206C166.002 38.3651 166.036 38.4858 166.103 38.5692C166.17 38.6526 166.269 38.6943 166.399 38.6943C166.53 38.6943 166.629 38.6526 166.696 38.5692C166.763 38.4858 166.797 38.3651 166.797 38.206V35.9849C166.797 35.8257 166.763 35.705 166.696 35.6216C166.629 35.5382 166.53 35.4965 166.399 35.4965C166.269 35.4965 166.17 35.5382 166.103 35.6216Z" fill="#323653"/>
<path id="Vector_21" d="M173.228 35.1464C173.395 35.3133 173.478 35.5492 173.478 35.8543V35.964L172.856 36.0255V35.8663C172.856 35.7445 172.827 35.6512 172.77 35.5887C172.713 35.5261 172.632 35.4943 172.527 35.4943C172.421 35.4943 172.339 35.5261 172.283 35.5887C172.226 35.6523 172.197 35.7445 172.197 35.8663V35.9212C172.197 36.0518 172.236 36.1791 172.314 36.3031C172.391 36.4271 172.533 36.5763 172.741 36.7519C173.038 37.0043 173.248 37.2315 173.369 37.4356C173.491 37.6386 173.553 37.8669 173.553 38.1193V38.3333C173.553 38.6384 173.466 38.8743 173.294 39.0411C173.12 39.2079 172.873 39.2913 172.552 39.2913C172.23 39.2913 171.983 39.2079 171.81 39.0411C171.637 38.8743 171.551 38.6384 171.551 38.3333V38.0469L172.173 37.9854V38.2905C172.173 38.5593 172.295 38.6932 172.54 38.6932C172.785 38.6932 172.906 38.5593 172.906 38.2905V38.15C172.906 38.0117 172.866 37.8801 172.785 37.756C172.703 37.632 172.556 37.4806 172.346 37.3017C172.053 37.0537 171.847 36.8288 171.729 36.6279C171.61 36.426 171.552 36.1999 171.552 35.9475V35.8565C171.552 35.5514 171.636 35.3154 171.802 35.1486C171.969 34.9818 172.207 34.8984 172.517 34.8984C172.826 34.8984 173.064 34.9818 173.231 35.1486L173.228 35.1464Z" fill="#323653"/>
</g>
<g id="Group_2">
<path id="Vector_22" d="M64.479 29.5949H59.1292C57.8135 27.9071 56.5076 26.2259 55.2148 24.5491C53.921 22.8733 52.6217 21.1855 51.3169 19.4868H56.5822L58.6409 22.1699C59.5627 20.8311 60.0247 19.2903 60.0247 17.5466C60.0247 15.4089 59.2763 13.5477 57.7805 11.9609C56.3067 10.453 54.5465 9.69912 52.4988 9.69912C50.327 9.69912 48.5383 10.453 47.1325 11.9609C45.6928 13.4116 44.9729 15.2739 44.9729 17.5466C44.9729 20.1233 45.8672 22.1644 47.656 23.6722C48.9608 24.7301 50.4291 25.3095 52.0598 25.4105L55.1984 29.3765C54.7825 29.4555 54.349 29.5115 53.8991 29.5455C53.4491 29.5795 52.9816 29.596 52.4988 29.596C49.0563 29.596 46.1877 28.4152 43.893 26.0525C41.5984 23.6229 40.4505 20.7872 40.4505 17.5477C40.4505 15.286 40.9904 13.2393 42.0703 11.4056C43.1731 9.54988 44.6404 8.08156 46.4741 7.00173C48.3078 5.93287 50.3161 5.39844 52.4988 5.39844C55.8513 5.39844 58.6464 6.57923 60.8851 8.94192C63.2478 11.3156 64.4286 14.1842 64.4286 17.5477C64.4286 20.6862 63.4266 23.4089 61.425 25.7145L64.479 29.596V29.5949Z" fill="#31B087"/>
<path id="Vector_23" d="M83.0789 5.39453L83.1974 5.73253L80.8347 11.8242L77.5612 20.1435H84.0917L82.5225 16.2115L84.8852 10.1199L92.4286 29.5932H87.5683L85.7795 24.6318H75.8745L73.8498 29.5932H69.1244L78.4566 5.39453H83.08H83.0789Z" fill="#31B087"/>
<path id="Vector_24" d="M101.637 5.39563V25.1893H110.563V29.5932H97.1478V5.39453H101.636L101.637 5.39563Z" fill="#31B087"/>
<path id="Vector_25" d="M119.635 5.39563V25.1893H128.561V29.5932H115.146V5.39453H119.634L119.635 5.39563Z" fill="#31B087"/>
<path id="Vector_26" d="M138.269 29.5932H133.646V5.39453H142.505C144.654 5.39453 146.493 6.15393 148.023 7.67272C149.587 9.20249 150.368 11.0362 150.368 13.174V13.4944C150.368 15.6321 149.585 17.4659 148.023 18.9956C146.481 20.5034 144.642 21.2574 142.505 21.2574H138.269V29.5932ZM142.049 16.7515C143.016 16.7515 143.814 16.431 144.445 15.789C145.086 15.1591 145.407 14.3602 145.407 13.3923C145.407 12.4244 145.086 11.5981 144.445 10.9122C143.804 10.2373 143.005 9.89933 142.049 9.89933H138.269V16.7504H142.049V16.7515Z" fill="#31B087"/>
<path id="Vector_27" d="M164.278 5.39453L164.397 5.73253L162.034 11.8242L158.76 20.1435H165.291L163.722 16.2115L166.084 10.1199L173.628 29.5932H168.768L166.979 24.6318H157.074L155.049 29.5932H150.324L159.656 5.39453H164.279H164.278Z" fill="#31B087"/>
</g>
<g id="Group_3">
<g id="Group_4">
<path id="Vector_28" d="M8.43606 31.8995C8.52824 31.9697 8.62262 32.0377 8.7159 32.1058H8.71699L9.78915 30.2226C9.70355 30.1579 9.62125 30.0909 9.53785 30.0251C8.39217 29.1241 7.38366 28.0597 6.54525 26.8646C6.24786 26.441 5.97241 26.0032 5.72001 25.5488C4.7126 23.7359 4.07612 21.6904 3.90602 19.5121C3.87639 19.1269 3.85664 18.7384 3.85664 18.3455C3.85664 10.1414 10.5068 3.49122 18.711 3.49122C20.7532 3.49122 22.6978 3.90384 24.469 4.64897L25.5686 2.7801C23.4704 1.8539 21.1516 1.33594 18.711 1.33594C9.31727 1.33594 1.70245 8.95185 1.70245 18.3455C1.70245 21.8232 2.74827 25.0561 4.54031 27.7502C4.54031 27.7502 4.54031 27.7513 4.54031 27.7524C4.80479 28.1507 5.08791 28.5348 5.38421 28.9091C6.272 30.0284 7.29697 31.0336 8.43606 31.8984V31.8995Z" fill="#323653"/>
<path id="Vector_29" d="M30.7586 6.3386L33.0533 2.42969H27.5937L26.9825 3.48319L25.9016 5.34656L10.9979 31.042L9.91692 32.9065L6.79045 38.2958L5.91144 39.8267H11.0988L14.0991 34.7161L15.2327 32.7858L29.625 8.27112C32.0711 10.9191 33.5669 14.4571 33.5669 18.3452C33.5669 26.5493 26.9167 33.1995 18.7125 33.1995C18.2286 33.1995 17.7501 33.1743 17.2782 33.1293L16.1238 35.1584C16.9677 35.2878 17.8324 35.3537 18.7125 35.3537C28.1062 35.3537 35.721 27.7389 35.721 18.3452C35.721 13.6582 33.8247 9.4146 30.7586 6.3386Z" fill="#323653"/>
</g>
<path id="Vector_30" d="M8.44428 11.4805L3.90656 19.5156C4.07555 21.6928 4.71314 23.7395 5.72055 25.5523C8.27638 21.1046 14.0926 11.4816 14.0926 11.4816H8.44428V11.4805Z" fill="#31B087"/>
<path id="Vector_31" d="M17.6113 7.375L6.54523 26.8625C7.38364 28.0576 8.39214 29.1221 9.53782 30.023C9.62122 30.0889 9.70353 30.1569 9.78912 30.2205L20.8388 10.8164L22.7987 7.375H17.6113Z" fill="#31B087"/>
</g>
</g>
<defs>
<clipPath id="clip0_553_425">
<rect width="173.333" height="40" fill="white" transform="translate(0.333313)"/>
</clipPath>
</defs>
</svg>
