<svg width="174" height="41" viewBox="0 0 174 41" fill="none" xmlns="http://www.w3.org/2000/svg">
<g id="Mesa de trabajo 6 3" clip-path="url(#clip0_553_603)">
<g id="Group">
<path id="Vector" d="M41.8298 35.8972C42.0065 36.0782 42.0954 36.3295 42.0954 36.6511V37.0351L41.4732 37.0659V36.718C41.4732 36.3888 41.3514 36.2242 41.1066 36.2242C40.9881 36.2242 40.8981 36.2604 40.8356 36.3339C40.7719 36.4074 40.7412 36.515 40.7412 36.6576V38.9885C40.7412 39.1312 40.773 39.2387 40.8356 39.3122C40.8981 39.3858 40.9892 39.422 41.1066 39.422C41.3503 39.422 41.4732 39.2574 41.4732 38.9282V38.4519L42.0954 38.4826V38.9951C42.0954 39.3166 42.0065 39.5679 41.8298 39.749C41.6531 39.9301 41.4051 40.0201 41.088 40.0201C40.7708 40.0201 40.5305 39.9312 40.356 39.7512C40.1815 39.5723 40.0938 39.3199 40.0938 38.994V36.6511C40.0938 36.3251 40.1815 36.0738 40.356 35.8939C40.5305 35.715 40.7752 35.625 41.088 35.625C41.4007 35.625 41.652 35.7161 41.8298 35.8961V35.8972Z" fill="white"/>
<path id="Vector_2" d="M48.0596 35.9147C48.2451 36.1079 48.3372 36.3712 48.3372 36.7048V38.938C48.3372 39.2716 48.2451 39.535 48.0596 39.7282C47.8741 39.9213 47.6195 40.0179 47.2936 40.0179C46.9677 40.0179 46.7131 39.9213 46.5276 39.7282C46.3422 39.535 46.25 39.2716 46.25 38.938V36.7048C46.25 36.3712 46.3422 36.1079 46.5276 35.9147C46.7131 35.7216 46.9677 35.625 47.2936 35.625C47.6195 35.625 47.8741 35.7216 48.0596 35.9147ZM46.9973 36.3482C46.9304 36.4316 46.8964 36.5523 46.8964 36.7114V38.9325C46.8964 39.0917 46.9304 39.2124 46.9973 39.2958C47.0643 39.3792 47.163 39.4209 47.2936 39.4209C47.4242 39.4209 47.523 39.3792 47.5899 39.2958C47.6569 39.2124 47.6909 39.0917 47.6909 38.9325V36.7114C47.6909 36.5523 47.6569 36.4316 47.5899 36.3482C47.523 36.2648 47.4242 36.2231 47.2936 36.2231C47.163 36.2231 47.0643 36.2648 46.9973 36.3482Z" fill="white"/>
<path id="Vector_3" d="M54.7337 39.9597H54.0994L53.2511 37.1284H53.2391V39.9597H52.6289V35.6875H53.3488L54.1115 38.2324H54.1236V35.6875H54.7337V39.9597Z" fill="white"/>
<path id="Vector_4" d="M60.5616 35.873C60.7284 36.0398 60.8118 36.2758 60.8118 36.5808V36.6906L60.1896 36.752V36.5929C60.1896 36.4711 60.161 36.3778 60.104 36.3153C60.0469 36.2527 59.9657 36.2209 59.8603 36.2209C59.755 36.2209 59.6727 36.2527 59.6167 36.3153C59.5597 36.3789 59.5311 36.4711 59.5311 36.5929V36.6478C59.5311 36.7784 59.5695 36.9057 59.6474 37.0297C59.7243 37.1537 59.8669 37.3029 60.0743 37.4785C60.3717 37.7309 60.5813 37.9581 60.7031 38.1622C60.825 38.3652 60.8864 38.5934 60.8864 38.8458V39.0598C60.8864 39.3649 60.7997 39.6009 60.6274 39.7677C60.454 39.9345 60.2071 40.0179 59.8856 40.0179C59.5641 40.0179 59.3171 39.9345 59.1437 39.7677C58.9704 39.6009 58.8848 39.3649 58.8848 39.0598V38.7734L59.507 38.712V39.017C59.507 39.2859 59.6288 39.4198 59.8735 39.4198C60.1182 39.4198 60.24 39.2859 60.24 39.017V38.8766C60.24 38.7383 60.1994 38.6066 60.1182 38.4826C60.037 38.3586 59.89 38.2072 59.6793 38.0283C59.3863 37.7803 59.1811 37.5553 59.0625 37.3545C58.944 37.1526 58.8859 36.9265 58.8859 36.6741V36.583C58.8859 36.2779 58.9693 36.042 59.1361 35.8752C59.3029 35.7084 59.541 35.625 59.8505 35.625C60.1599 35.625 60.3981 35.7084 60.5649 35.8752L60.5616 35.873Z" fill="white"/>
<path id="Vector_5" d="M66.9149 39.0016C66.9149 39.3308 66.826 39.5833 66.6493 39.7588C66.4726 39.9333 66.2246 40.0211 65.9074 40.0211C65.5903 40.0211 65.3555 39.9333 65.1777 39.7588C65.001 39.5843 64.9121 39.3319 64.9121 39.0016V35.6875H65.5343V38.983C65.5343 39.2683 65.6561 39.4099 65.9009 39.4099C66.1456 39.4099 66.2674 39.2672 66.2674 38.983V35.6875H66.9138V39.0016H66.9149Z" fill="white"/>
<path id="Vector_6" d="M71.8818 39.3495H72.9617V39.9597H71.2344V35.6875H71.8807V39.3495H71.8818Z" fill="white"/>
<path id="Vector_7" d="M78.4555 36.2977H77.7663V39.9597H77.1189V36.2977H76.4297V35.6875H78.4555V36.2977Z" fill="white"/>
<path id="Vector_8" d="M84.255 35.9147C84.4405 36.1079 84.5327 36.3712 84.5327 36.7048V38.938C84.5327 39.2716 84.4405 39.535 84.255 39.7282C84.0696 39.9213 83.815 40.0179 83.4891 40.0179C83.1631 40.0179 82.9085 39.9213 82.7231 39.7282C82.5376 39.535 82.4454 39.2716 82.4454 38.938V36.7048C82.4454 36.3712 82.5376 36.1079 82.7231 35.9147C82.9085 35.7216 83.1631 35.625 83.4891 35.625C83.815 35.625 84.0696 35.7216 84.255 35.9147ZM83.1928 36.3482C83.1258 36.4316 83.0918 36.5523 83.0918 36.7114V38.9325C83.0918 39.0917 83.1258 39.2124 83.1928 39.2958C83.2597 39.3792 83.3585 39.4209 83.4891 39.4209C83.6196 39.4209 83.7184 39.3792 83.7854 39.2958C83.8523 39.2124 83.8863 39.0917 83.8863 38.9325V36.7114C83.8863 36.5523 83.8523 36.4316 83.7854 36.3482C83.7184 36.2648 83.6196 36.2231 83.4891 36.2231C83.3585 36.2231 83.2597 36.2648 83.1928 36.3482Z" fill="white"/>
<path id="Vector_9" d="M90.2827 39.9597L89.7702 38.1533H89.4717V39.9597H88.8242V35.6875H89.7581C90.1082 35.6875 90.3748 35.7797 90.557 35.9651C90.7403 36.1506 90.8314 36.4173 90.8314 36.7673V37.0724C90.8314 37.5245 90.6788 37.8373 90.3737 38.0118L90.9652 39.9586H90.2816L90.2827 39.9597ZM89.4706 36.2856V37.5553H89.7329C89.8876 37.5553 90.0017 37.5125 90.0742 37.4269C90.1477 37.3413 90.1839 37.2096 90.1839 37.0307V36.8112C90.1839 36.6324 90.1477 36.4996 90.0742 36.4151C90.0006 36.3295 89.8865 36.2867 89.7329 36.2867H89.4706V36.2856Z" fill="white"/>
<path id="Vector_10" d="M96.916 36.2856H95.744V37.4938H96.69V38.0919H95.744V39.3616H96.916V39.9597H95.0977V35.6875H96.916V36.2856Z" fill="white"/>
<path id="Vector_11" d="M102.591 35.873C102.758 36.0398 102.841 36.2758 102.841 36.5808V36.6906L102.219 36.752V36.5929C102.219 36.4711 102.19 36.3778 102.133 36.3153C102.076 36.2527 101.995 36.2209 101.89 36.2209C101.784 36.2209 101.702 36.2527 101.646 36.3153C101.589 36.3789 101.56 36.4711 101.56 36.5929V36.6478C101.56 36.7784 101.599 36.9057 101.677 37.0297C101.754 37.1537 101.896 37.3029 102.104 37.4785C102.401 37.7309 102.611 37.9581 102.732 38.1622C102.854 38.3652 102.916 38.5934 102.916 38.8458V39.0598C102.916 39.3649 102.829 39.6009 102.657 39.7677C102.483 39.9345 102.236 40.0179 101.915 40.0179C101.593 40.0179 101.346 39.9345 101.173 39.7677C101 39.6009 100.914 39.3649 100.914 39.0598V38.7734L101.536 38.712V39.017C101.536 39.2859 101.658 39.4198 101.903 39.4198C102.148 39.4198 102.269 39.2859 102.269 39.017V38.8766C102.269 38.7383 102.229 38.6066 102.148 38.4826C102.066 38.3586 101.919 38.2072 101.709 38.0283C101.416 37.7803 101.21 37.5553 101.092 37.3545C100.973 37.1526 100.915 36.9265 100.915 36.6741V36.583C100.915 36.2779 100.999 36.042 101.165 35.8752C101.332 35.7084 101.57 35.625 101.88 35.625C102.189 35.625 102.427 35.7084 102.594 35.8752L102.591 35.873Z" fill="white"/>
<path id="Vector_12" d="M113.286 35.8686C113.443 36.031 113.521 36.2593 113.521 36.5523V36.583C113.521 36.7827 113.474 36.9638 113.381 37.1262C113.288 37.2886 113.114 37.4961 112.862 37.7485L113.301 38.4321H113.313V37.8033L113.875 37.8341V38.5364C113.875 38.8009 113.842 39.0127 113.777 39.1707L114.302 39.9575H113.532L113.41 39.7622C113.236 39.9334 112.991 40.019 112.678 40.019C112.349 40.019 112.089 39.929 111.9 39.7479C111.712 39.5668 111.616 39.31 111.616 38.9753V38.8228C111.616 38.6231 111.651 38.4376 111.723 38.2642C111.794 38.0908 111.915 37.9076 112.086 37.7122C111.94 37.4719 111.839 37.2711 111.784 37.1076C111.729 36.9452 111.702 36.7784 111.702 36.6072V36.571C111.702 36.2615 111.779 36.0266 111.933 35.8664C112.088 35.7062 112.314 35.625 112.61 35.625C112.907 35.625 113.128 35.7062 113.285 35.8686H113.286ZM112.429 38.2423C112.368 38.352 112.325 38.4508 112.301 38.5386C112.277 38.6264 112.265 38.7186 112.265 38.8162V38.9139C112.265 39.0851 112.304 39.2124 112.383 39.2958C112.462 39.3792 112.571 39.4209 112.71 39.4209C112.865 39.4209 112.991 39.3704 113.089 39.2683L112.441 38.2434H112.429V38.2423ZM112.402 36.3142C112.351 36.3756 112.325 36.4645 112.325 36.583V36.6138C112.325 36.6993 112.342 36.7904 112.373 36.8881C112.406 36.9858 112.461 37.1098 112.538 37.2601H112.55C112.688 37.1054 112.783 36.9825 112.834 36.8903C112.885 36.7992 112.911 36.7026 112.911 36.6006V36.5699C112.911 36.4601 112.886 36.3745 112.834 36.3131C112.784 36.2516 112.711 36.222 112.618 36.222C112.525 36.222 112.452 36.2527 112.402 36.3131V36.3142Z" fill="white"/>
<path id="Vector_13" d="M125.141 39.9597H124.482L124.341 38.9896H123.627L123.486 39.9597H122.84L123.578 35.6875H124.403L125.141 39.9597ZM123.976 36.6027L123.713 38.4035H124.257L123.994 36.6027H123.976Z" fill="white"/>
<path id="Vector_14" d="M130.743 35.873C130.91 36.0398 130.993 36.2758 130.993 36.5808V36.6906L130.371 36.752V36.5929C130.371 36.4711 130.343 36.3778 130.286 36.3153C130.229 36.2527 130.147 36.2209 130.042 36.2209C129.937 36.2209 129.854 36.2527 129.798 36.3153C129.741 36.3789 129.713 36.4711 129.713 36.5929V36.6478C129.713 36.7784 129.751 36.9057 129.829 37.0297C129.906 37.1537 130.049 37.3029 130.256 37.4785C130.553 37.7309 130.763 37.9581 130.885 38.1622C131.007 38.3652 131.068 38.5934 131.068 38.8458V39.0598C131.068 39.3649 130.981 39.6009 130.809 39.7677C130.636 39.9345 130.389 40.0179 130.067 40.0179C129.746 40.0179 129.499 39.9345 129.325 39.7677C129.152 39.6009 129.066 39.3649 129.066 39.0598V38.7734L129.689 38.712V39.017C129.689 39.2859 129.81 39.4198 130.055 39.4198C130.3 39.4198 130.422 39.2859 130.422 39.017V38.8766C130.422 38.7383 130.381 38.6066 130.3 38.4826C130.219 38.3586 130.072 38.2072 129.861 38.0283C129.568 37.7803 129.363 37.5553 129.244 37.3545C129.126 37.1526 129.068 36.9265 129.068 36.6741V36.583C129.068 36.2779 129.151 36.042 129.318 35.8752C129.485 35.7084 129.723 35.625 130.032 35.625C130.342 35.625 130.58 35.7084 130.747 35.8752L130.743 35.873Z" fill="white"/>
<path id="Vector_15" d="M136.885 35.9147C137.07 36.1079 137.162 36.3712 137.162 36.7048V38.938C137.162 39.2716 137.07 39.535 136.885 39.7282C136.699 39.9213 136.445 40.0179 136.119 40.0179C135.793 40.0179 135.538 39.9213 135.353 39.7282C135.167 39.535 135.075 39.2716 135.075 38.938V36.7048C135.075 36.3712 135.167 36.1079 135.353 35.9147C135.538 35.7216 135.793 35.625 136.119 35.625C136.445 35.625 136.699 35.7216 136.885 35.9147ZM135.823 36.3482C135.756 36.4316 135.722 36.5523 135.722 36.7114V38.9325C135.722 39.0917 135.756 39.2124 135.823 39.2958C135.889 39.3792 135.988 39.4209 136.119 39.4209C136.249 39.4209 136.348 39.3792 136.415 39.2958C136.482 39.2124 136.516 39.0917 136.516 38.9325V36.7114C136.516 36.5523 136.482 36.4316 136.415 36.3482C136.348 36.2648 136.249 36.2231 136.119 36.2231C135.988 36.2231 135.889 36.2648 135.823 36.3482Z" fill="white"/>
<path id="Vector_16" d="M143.123 35.8972C143.299 36.0782 143.388 36.3295 143.388 36.6511V37.0351L142.766 37.0659V36.718C142.766 36.3888 142.644 36.2242 142.4 36.2242C142.281 36.2242 142.191 36.2604 142.129 36.3339C142.065 36.4074 142.034 36.515 142.034 36.6576V38.9885C142.034 39.1312 142.066 39.2387 142.129 39.3122C142.191 39.3858 142.282 39.422 142.4 39.422C142.643 39.422 142.766 39.2574 142.766 38.9282V38.4519L143.388 38.4826V38.9951C143.388 39.3166 143.299 39.5679 143.123 39.749C142.946 39.9301 142.698 40.0201 142.381 40.0201C142.064 40.0201 141.823 39.9312 141.649 39.7512C141.475 39.5723 141.387 39.3199 141.387 38.994V36.6511C141.387 36.3251 141.475 36.0738 141.649 35.8939C141.823 35.715 142.068 35.625 142.381 35.625C142.694 35.625 142.945 35.7161 143.123 35.8961V35.8972Z" fill="white"/>
<path id="Vector_17" d="M148.245 39.9597H147.598V35.6875H148.245V39.9597Z" fill="white"/>
<path id="Vector_18" d="M154.671 39.9597H154.012L153.871 38.9896H153.157L153.016 39.9597H152.37L153.109 35.6875H153.933L154.671 39.9597ZM153.506 36.6027L153.244 38.4035H153.787L153.525 36.6027H153.506Z" fill="white"/>
<path id="Vector_19" d="M160.524 35.9662C160.707 36.1517 160.799 36.4184 160.799 36.7684V38.8798C160.799 39.2299 160.707 39.4977 160.524 39.682C160.341 39.8675 160.074 39.9597 159.724 39.9597H158.797V35.6875H159.724C160.074 35.6875 160.341 35.7797 160.524 35.9651V35.9662ZM159.444 36.2867V39.3627H159.701C159.856 39.3627 159.97 39.3199 160.042 39.2343C160.116 39.1487 160.152 39.017 160.152 38.8381V36.8123C160.152 36.6335 160.116 36.5007 160.042 36.4162C159.969 36.3317 159.855 36.2878 159.701 36.2878H159.444V36.2867Z" fill="white"/>
<path id="Vector_20" d="M166.832 35.9147C167.018 36.1079 167.11 36.3712 167.11 36.7048V38.938C167.11 39.2716 167.018 39.535 166.832 39.7282C166.647 39.9213 166.392 40.0179 166.066 40.0179C165.74 40.0179 165.486 39.9213 165.3 39.7282C165.115 39.535 165.022 39.2716 165.022 38.938V36.7048C165.022 36.3712 165.115 36.1079 165.3 35.9147C165.486 35.7216 165.74 35.625 166.066 35.625C166.392 35.625 166.647 35.7216 166.832 35.9147ZM165.77 36.3482C165.703 36.4316 165.669 36.5523 165.669 36.7114V38.9325C165.669 39.0917 165.703 39.2124 165.77 39.2958C165.837 39.3792 165.935 39.4209 166.066 39.4209C166.197 39.4209 166.295 39.3792 166.362 39.2958C166.429 39.2124 166.463 39.0917 166.463 38.9325V36.7114C166.463 36.5523 166.429 36.4316 166.362 36.3482C166.295 36.2648 166.197 36.2231 166.066 36.2231C165.935 36.2231 165.837 36.2648 165.77 36.3482Z" fill="white"/>
<path id="Vector_21" d="M172.895 35.873C173.061 36.0398 173.145 36.2758 173.145 36.5808V36.6906L172.523 36.752V36.5929C172.523 36.4711 172.494 36.3778 172.437 36.3153C172.38 36.2527 172.299 36.2209 172.193 36.2209C172.088 36.2209 172.006 36.2527 171.95 36.3153C171.893 36.3789 171.864 36.4711 171.864 36.5929V36.6478C171.864 36.7784 171.903 36.9057 171.98 37.0297C172.057 37.1537 172.2 37.3029 172.407 37.4785C172.705 37.7309 172.914 37.9581 173.036 38.1622C173.158 38.3652 173.219 38.5934 173.219 38.8458V39.0598C173.219 39.3649 173.133 39.6009 172.96 39.7677C172.787 39.9345 172.54 40.0179 172.219 40.0179C171.897 40.0179 171.65 39.9345 171.477 39.7677C171.303 39.6009 171.218 39.3649 171.218 39.0598V38.7734L171.84 38.712V39.017C171.84 39.2859 171.962 39.4198 172.207 39.4198C172.451 39.4198 172.573 39.2859 172.573 39.017V38.8766C172.573 38.7383 172.532 38.6066 172.451 38.4826C172.37 38.3586 172.223 38.2072 172.012 38.0283C171.719 37.7803 171.514 37.5553 171.396 37.3545C171.277 37.1526 171.219 36.9265 171.219 36.6741V36.583C171.219 36.2779 171.302 36.042 171.469 35.8752C171.636 35.7084 171.874 35.625 172.183 35.625C172.493 35.625 172.731 35.7084 172.898 35.8752L172.895 35.873Z" fill="white"/>
</g>
<g id="Group_2">
<path id="Vector_22" d="M64.1457 30.3214H58.7959C57.4802 28.6336 56.1743 26.9524 54.8815 25.2756C53.5877 23.5999 52.2884 21.9121 50.9836 20.2133H56.2489L58.3076 22.8965C59.2294 21.5577 59.6914 20.0169 59.6914 18.2732C59.6914 16.1354 58.943 14.2742 57.4472 12.6874C55.9734 11.1796 54.2132 10.4257 52.1655 10.4257C49.9937 10.4257 48.205 11.1796 46.7992 12.6874C45.3594 14.1382 44.6395 16.0004 44.6395 18.2732C44.6395 20.8498 45.5339 22.891 47.3227 24.3988C48.6275 25.4567 50.0958 26.0361 51.7265 26.1371L54.8651 30.1031C54.4492 30.1821 54.0157 30.238 53.5657 30.2721C53.1158 30.3061 52.6483 30.3225 52.1655 30.3225C48.7229 30.3225 45.8544 29.1417 43.5597 26.779C41.2651 24.3494 40.1172 21.5137 40.1172 18.2742C40.1172 16.0125 40.6571 13.9659 41.7369 12.1321C42.8398 10.2764 44.307 8.80813 46.1408 7.72829C47.9745 6.65943 49.9828 6.125 52.1655 6.125C55.518 6.125 58.3131 7.30579 60.5518 9.66848C62.9144 12.0421 64.0952 14.9107 64.0952 18.2742C64.0952 21.4128 63.0933 24.1354 61.0917 26.4411L64.1457 30.3225V30.3214Z" fill="white"/>
<path id="Vector_23" d="M82.7455 6.12097L82.8641 6.45897L80.5014 12.5506L77.2278 20.8699H83.7584L82.1892 16.938L84.5518 10.8463L92.0953 30.3196H87.235L85.4462 25.3583H75.5411L73.5165 30.3196H68.7911L78.1233 6.12097H82.7466H82.7455Z" fill="white"/>
<path id="Vector_24" d="M101.304 6.12219V25.9159H110.23V30.3197H96.8145V6.12109H101.303L101.304 6.12219Z" fill="white"/>
<path id="Vector_25" d="M119.302 6.12207V25.9158H128.228V30.3196H114.812V6.12097H119.301L119.302 6.12207Z" fill="white"/>
<path id="Vector_26" d="M137.936 30.3197H133.312V6.12109H142.172C144.32 6.12109 146.16 6.88049 147.689 8.39928C149.253 9.92905 150.035 11.7628 150.035 13.9005V14.221C150.035 16.3587 149.252 18.1924 147.689 19.7222C146.148 21.23 144.308 21.9839 142.172 21.9839H137.936V30.3197ZM141.715 17.478C142.683 17.478 143.481 17.1576 144.112 16.5156C144.753 15.8857 145.073 15.0868 145.073 14.1189C145.073 13.151 144.753 12.3247 144.112 11.6388C143.471 10.9639 142.672 10.6259 141.715 10.6259H137.936V17.4769H141.715V17.478Z" fill="white"/>
<path id="Vector_27" d="M163.945 6.12097L164.063 6.45897L161.701 12.5506L158.427 20.8699H164.958L163.388 16.938L165.751 10.8463L173.295 30.3196H168.434L166.646 25.3583H156.74L154.716 30.3196H149.99L159.323 6.12097H163.946H163.945Z" fill="white"/>
</g>
<g id="Group_3">
<g id="Group_4">
<path id="Vector_28" d="M8.10275 32.626C8.19493 32.6962 8.28931 32.7643 8.38258 32.8323H8.38368L9.45584 30.9492C9.37024 30.8844 9.28793 30.8175 9.20453 30.7517C8.05885 29.8507 7.05035 28.7862 6.21194 27.5912C5.91455 27.1676 5.6391 26.7297 5.3867 26.2754C4.37929 24.4625 3.7428 22.417 3.57271 20.2386C3.54308 19.8534 3.52332 19.465 3.52332 19.0721C3.52332 10.868 10.1735 4.21778 18.3776 4.21778C20.4199 4.21778 22.3645 4.6304 24.1357 5.37553L25.2353 3.50667C23.137 2.58047 20.8183 2.0625 18.3776 2.0625C8.98396 2.0625 1.36914 9.67841 1.36914 19.0721C1.36914 22.5497 2.41496 25.7827 4.207 28.4768C4.207 28.4768 4.207 28.4779 4.207 28.479C4.47147 28.8773 4.7546 29.2614 5.0509 29.6356C5.93869 30.755 6.96365 31.7602 8.10275 32.6249V32.626Z" fill="white"/>
<path id="Vector_29" d="M30.4253 7.06517L32.72 3.15625H27.2604L26.6492 4.20975L25.5682 6.07312L10.6645 31.7686L9.58361 33.6331L6.45714 39.0224L5.57812 40.5532H10.7655L13.7658 35.4427L14.8994 33.5124L29.2917 8.99768C31.7378 11.6457 33.2335 15.1837 33.2335 19.0718C33.2335 27.2759 26.5833 33.9261 18.3792 33.9261C17.8953 33.9261 17.4168 33.9008 16.9449 33.8558L15.7905 35.8849C16.6344 36.0144 17.4991 36.0803 18.3792 36.0803C27.7729 36.0803 35.3877 28.4654 35.3877 19.0718C35.3877 14.3848 33.4914 10.1412 30.4253 7.06517Z" fill="white"/>
</g>
<path id="Vector_30" d="M8.11097 12.207L3.57324 20.2421C3.74224 22.4194 4.37983 24.466 5.38723 26.2789C7.94306 21.8312 13.7593 12.2081 13.7593 12.2081H8.11097V12.207Z" fill="white"/>
<path id="Vector_31" d="M17.278 8.10156L6.21191 27.5891C7.05032 28.7841 8.05883 29.8486 9.20451 30.7496C9.28791 30.8154 9.37021 30.8835 9.45581 30.9471L20.5055 11.543L22.4654 8.10156H17.278Z" fill="white"/>
</g>
</g>
<defs>
<clipPath id="clip0_553_603">
<rect width="173.333" height="40" fill="white" transform="translate(0 0.726562)"/>
</clipPath>
</defs>
</svg>
