<svg width="34" height="34" viewBox="0 0 34 34" fill="none" xmlns="http://www.w3.org/2000/svg">
<rect width="34" height="34" rx="17" fill="white"/>
<g clip-path="url(#clip0_553_1007)">
<path d="M17.0034 12.9554C14.732 12.9554 12.8999 14.7589 12.8999 16.9948C12.8999 19.2308 14.732 21.0343 17.0034 21.0343C19.2749 21.0343 21.107 19.2308 21.107 16.9948C21.107 14.7589 19.2749 12.9554 17.0034 12.9554ZM17.0034 19.621C15.5356 19.621 14.3356 18.4433 14.3356 16.9948C14.3356 15.5464 15.532 14.3686 17.0034 14.3686C18.4749 14.3686 19.6713 15.5464 19.6713 16.9948C19.6713 18.4433 18.4713 19.621 17.0034 19.621ZM22.232 12.7901C22.232 13.314 21.8034 13.7323 21.2749 13.7323C20.7427 13.7323 20.3177 13.3104 20.3177 12.7901C20.3177 12.2698 20.7463 11.8479 21.2749 11.8479C21.8034 11.8479 22.232 12.2698 22.232 12.7901ZM24.9499 13.7464C24.8891 12.4843 24.5963 11.3663 23.657 10.4452C22.7213 9.52412 21.5856 9.23584 20.3034 9.17256C18.982 9.09873 15.0213 9.09873 13.6999 9.17256C12.4213 9.23232 11.2856 9.52061 10.3463 10.4417C9.40701 11.3628 9.11773 12.4808 9.05344 13.7429C8.97844 15.0436 8.97844 18.9425 9.05344 20.2433C9.11416 21.5054 9.40701 22.6233 10.3463 23.5444C11.2856 24.4655 12.4177 24.7538 13.6999 24.8171C15.0213 24.8909 18.982 24.8909 20.3034 24.8171C21.5856 24.7573 22.7213 24.469 23.657 23.5444C24.5927 22.6233 24.8856 21.5054 24.9499 20.2433C25.0249 18.9425 25.0249 15.0472 24.9499 13.7464ZM23.2427 21.639C22.9641 22.328 22.4249 22.8589 21.7213 23.1366C20.6677 23.5479 18.1677 23.453 17.0034 23.453C15.8392 23.453 13.3356 23.5444 12.2856 23.1366C11.5856 22.8624 11.0463 22.3315 10.7642 21.639C10.3463 20.6018 10.4427 18.1409 10.4427 16.9948C10.4427 15.8487 10.3499 13.3843 10.7642 12.3507C11.0427 11.6616 11.582 11.1308 12.2856 10.853C13.3392 10.4417 15.8392 10.5366 17.0034 10.5366C18.1677 10.5366 20.6713 10.4452 21.7213 10.853C22.4213 11.1272 22.9606 11.6581 23.2427 12.3507C23.6606 13.3878 23.5641 15.8487 23.5641 16.9948C23.5641 18.1409 23.6606 20.6054 23.2427 21.639Z" fill="#323653"/>
</g>
<defs>
<clipPath id="clip0_553_1007">
<rect width="16" height="18" fill="white" transform="translate(9.00012 8)"/>
</clipPath>
</defs>
</svg>
