<svg width="174" height="40" viewBox="0 0 174 40" fill="none" xmlns="http://www.w3.org/2000/svg">
<g clip-path="url(#clip0_549_336)">
<path d="M41.8298 35.1706C42.0065 35.3517 42.0954 35.603 42.0954 35.9245V36.3086L41.4732 36.3393V35.9914C41.4732 35.6622 41.3514 35.4976 41.1066 35.4976C40.9881 35.4976 40.8981 35.5338 40.8356 35.6074C40.7719 35.6809 40.7412 35.7884 40.7412 35.9311V38.262C40.7412 38.4046 40.773 38.5122 40.8356 38.5857C40.8981 38.6592 40.9892 38.6954 41.1066 38.6954C41.3503 38.6954 41.4732 38.5308 41.4732 38.2016V37.7253L42.0954 37.756V38.2685C42.0954 38.5901 42.0065 38.8414 41.8298 39.0224C41.6531 39.2035 41.4051 39.2935 41.088 39.2935C40.7708 39.2935 40.5305 39.2046 40.356 39.0246C40.1815 38.8458 40.0938 38.5934 40.0938 38.2674V35.9245C40.0938 35.5986 40.1815 35.3473 40.356 35.1673C40.5305 34.9884 40.7752 34.8984 41.088 34.8984C41.4007 34.8984 41.652 34.9895 41.8298 35.1695V35.1706Z" fill="white"/>
<path d="M48.0596 35.1882C48.2451 35.3813 48.3372 35.6447 48.3372 35.9783V38.2115C48.3372 38.5451 48.2451 38.8085 48.0596 39.0016C47.8741 39.1947 47.6195 39.2913 47.2936 39.2913C46.9677 39.2913 46.7131 39.1947 46.5276 39.0016C46.3422 38.8085 46.25 38.5451 46.25 38.2115V35.9783C46.25 35.6447 46.3422 35.3813 46.5276 35.1882C46.7131 34.995 46.9677 34.8984 47.2936 34.8984C47.6195 34.8984 47.8741 34.995 48.0596 35.1882ZM46.9973 35.6216C46.9304 35.705 46.8964 35.8257 46.8964 35.9849V38.206C46.8964 38.3651 46.9304 38.4858 46.9973 38.5692C47.0643 38.6526 47.163 38.6943 47.2936 38.6943C47.4242 38.6943 47.523 38.6526 47.5899 38.5692C47.6569 38.4858 47.6909 38.3651 47.6909 38.206V35.9849C47.6909 35.8257 47.6569 35.705 47.5899 35.6216C47.523 35.5382 47.4242 35.4965 47.2936 35.4965C47.163 35.4965 47.0643 35.5382 46.9973 35.6216Z" fill="white"/>
<path d="M54.7337 39.2331H54.0994L53.2511 36.4018H53.2391V39.2331H52.6289V34.9609H53.3488L54.1115 37.5058H54.1236V34.9609H54.7337V39.2331Z" fill="white"/>
<path d="M60.5616 35.1464C60.7284 35.3133 60.8118 35.5492 60.8118 35.8543V35.964L60.1896 36.0255V35.8663C60.1896 35.7445 60.161 35.6512 60.104 35.5887C60.0469 35.5261 59.9657 35.4943 59.8603 35.4943C59.755 35.4943 59.6727 35.5261 59.6167 35.5887C59.5597 35.6523 59.5311 35.7445 59.5311 35.8663V35.9212C59.5311 36.0518 59.5695 36.1791 59.6474 36.3031C59.7243 36.4271 59.8669 36.5763 60.0743 36.7519C60.3717 37.0043 60.5813 37.2315 60.7031 37.4356C60.825 37.6386 60.8864 37.8669 60.8864 38.1193V38.3333C60.8864 38.6384 60.7997 38.8743 60.6274 39.0411C60.454 39.2079 60.2071 39.2913 59.8856 39.2913C59.5641 39.2913 59.3171 39.2079 59.1437 39.0411C58.9704 38.8743 58.8848 38.6384 58.8848 38.3333V38.0469L59.507 37.9854V38.2905C59.507 38.5593 59.6288 38.6932 59.8735 38.6932C60.1182 38.6932 60.24 38.5593 60.24 38.2905V38.15C60.24 38.0117 60.1994 37.8801 60.1182 37.756C60.037 37.632 59.89 37.4806 59.6793 37.3017C59.3863 37.0537 59.1811 36.8288 59.0625 36.6279C58.944 36.426 58.8859 36.1999 58.8859 35.9475V35.8565C58.8859 35.5514 58.9693 35.3154 59.1361 35.1486C59.3029 34.9818 59.541 34.8984 59.8505 34.8984C60.1599 34.8984 60.3981 34.9818 60.5649 35.1486L60.5616 35.1464Z" fill="white"/>
<path d="M66.9149 38.2751C66.9149 38.6043 66.826 38.8567 66.6493 39.0323C66.4726 39.2068 66.2246 39.2945 65.9074 39.2945C65.5903 39.2945 65.3555 39.2068 65.1777 39.0323C65.001 38.8578 64.9121 38.6054 64.9121 38.2751V34.9609H65.5343V38.2564C65.5343 38.5417 65.6561 38.6833 65.9009 38.6833C66.1456 38.6833 66.2674 38.5406 66.2674 38.2564V34.9609H66.9138V38.2751H66.9149Z" fill="white"/>
<path d="M71.8818 38.6229H72.9617V39.2331H71.2344V34.9609H71.8807V38.6229H71.8818Z" fill="white"/>
<path d="M78.4555 35.5711H77.7663V39.2331H77.1189V35.5711H76.4297V34.9609H78.4555V35.5711Z" fill="white"/>
<path d="M84.2549 35.1882C84.4404 35.3813 84.5326 35.6447 84.5326 35.9783V38.2115C84.5326 38.5451 84.4404 38.8085 84.2549 39.0016C84.0695 39.1947 83.8149 39.2913 83.4889 39.2913C83.163 39.2913 82.9084 39.1947 82.723 39.0016C82.5375 38.8085 82.4453 38.5451 82.4453 38.2115V35.9783C82.4453 35.6447 82.5375 35.3813 82.723 35.1882C82.9084 34.995 83.163 34.8984 83.4889 34.8984C83.8149 34.8984 84.0695 34.995 84.2549 35.1882ZM83.1926 35.6216C83.1257 35.705 83.0917 35.8257 83.0917 35.9849V38.206C83.0917 38.3651 83.1257 38.4858 83.1926 38.5692C83.2596 38.6526 83.3583 38.6943 83.4889 38.6943C83.6195 38.6943 83.7183 38.6526 83.7852 38.5692C83.8522 38.4858 83.8862 38.3651 83.8862 38.206V35.9849C83.8862 35.8257 83.8522 35.705 83.7852 35.6216C83.7183 35.5382 83.6195 35.4965 83.4889 35.4965C83.3583 35.4965 83.2596 35.5382 83.1926 35.6216Z" fill="white"/>
<path d="M90.2827 39.2331L89.7702 37.4268H89.4717V39.2331H88.8242V34.9609H89.7581C90.1082 34.9609 90.3748 35.0531 90.557 35.2386C90.7403 35.424 90.8314 35.6907 90.8314 36.0408V36.3458C90.8314 36.798 90.6788 37.1107 90.3737 37.2852L90.9652 39.232H90.2816L90.2827 39.2331ZM89.4706 35.559V36.8287H89.7329C89.8876 36.8287 90.0017 36.7859 90.0742 36.7003C90.1477 36.6147 90.1839 36.483 90.1839 36.3041V36.0847C90.1839 35.9058 90.1477 35.773 90.0742 35.6885C90.0006 35.6029 89.8865 35.5601 89.7329 35.5601H89.4706V35.559Z" fill="white"/>
<path d="M96.916 35.559H95.744V36.7672H96.69V37.3653H95.744V38.635H96.916V39.2331H95.0977V34.9609H96.916V35.559Z" fill="white"/>
<path d="M102.591 35.1464C102.758 35.3133 102.841 35.5492 102.841 35.8543V35.964L102.219 36.0255V35.8663C102.219 35.7445 102.19 35.6512 102.133 35.5887C102.076 35.5261 101.995 35.4943 101.89 35.4943C101.784 35.4943 101.702 35.5261 101.646 35.5887C101.589 35.6523 101.56 35.7445 101.56 35.8663V35.9212C101.56 36.0518 101.599 36.1791 101.677 36.3031C101.754 36.4271 101.896 36.5763 102.104 36.7519C102.401 37.0043 102.611 37.2315 102.732 37.4356C102.854 37.6386 102.916 37.8669 102.916 38.1193V38.3333C102.916 38.6384 102.829 38.8743 102.657 39.0411C102.483 39.2079 102.236 39.2913 101.915 39.2913C101.593 39.2913 101.346 39.2079 101.173 39.0411C101 38.8743 100.914 38.6384 100.914 38.3333V38.0469L101.536 37.9854V38.2905C101.536 38.5593 101.658 38.6932 101.903 38.6932C102.148 38.6932 102.269 38.5593 102.269 38.2905V38.15C102.269 38.0117 102.229 37.8801 102.148 37.756C102.066 37.632 101.919 37.4806 101.709 37.3017C101.416 37.0537 101.21 36.8288 101.092 36.6279C100.973 36.426 100.915 36.1999 100.915 35.9475V35.8565C100.915 35.5514 100.999 35.3154 101.165 35.1486C101.332 34.9818 101.57 34.8984 101.88 34.8984C102.189 34.8984 102.427 34.9818 102.594 35.1486L102.591 35.1464Z" fill="white"/>
<path d="M113.286 35.1421C113.443 35.3045 113.521 35.5327 113.521 35.8257V35.8565C113.521 36.0562 113.474 36.2373 113.381 36.3997C113.288 36.5621 113.114 36.7695 112.862 37.0219L113.301 37.7056H113.313V37.0768L113.875 37.1075V37.8098C113.875 38.0743 113.842 38.2861 113.777 38.4441L114.302 39.2309H113.532L113.41 39.0356C113.236 39.2068 112.991 39.2924 112.678 39.2924C112.349 39.2924 112.089 39.2024 111.9 39.0213C111.712 38.8403 111.616 38.5835 111.616 38.2488V38.0962C111.616 37.8965 111.651 37.7111 111.723 37.5377C111.794 37.3643 111.915 37.181 112.086 36.9857C111.94 36.7454 111.839 36.5445 111.784 36.381C111.729 36.2186 111.702 36.0518 111.702 35.8806V35.8444C111.702 35.5349 111.779 35.3001 111.933 35.1399C112.088 34.9796 112.314 34.8984 112.61 34.8984C112.907 34.8984 113.128 34.9796 113.285 35.1421H113.286ZM112.429 37.5157C112.368 37.6255 112.325 37.7242 112.301 37.812C112.277 37.8998 112.265 37.992 112.265 38.0897V38.1873C112.265 38.3585 112.304 38.4858 112.383 38.5692C112.462 38.6526 112.571 38.6943 112.71 38.6943C112.865 38.6943 112.991 38.6438 113.089 38.5418L112.441 37.5168H112.429V37.5157ZM112.402 35.5876C112.351 35.6491 112.325 35.7379 112.325 35.8565V35.8872C112.325 35.9728 112.342 36.0639 112.373 36.1615C112.406 36.2592 112.461 36.3832 112.538 36.5336H112.55C112.688 36.3788 112.783 36.2559 112.834 36.1637C112.885 36.0726 112.911 35.9761 112.911 35.874V35.8433C112.911 35.7336 112.886 35.648 112.834 35.5865C112.784 35.5251 112.711 35.4954 112.618 35.4954C112.525 35.4954 112.452 35.5261 112.402 35.5865V35.5876Z" fill="white"/>
<path d="M125.141 39.2331H124.482L124.341 38.263H123.627L123.486 39.2331H122.84L123.578 34.9609H124.403L125.141 39.2331ZM123.976 35.8762L123.713 37.677H124.257L123.994 35.8762H123.976Z" fill="white"/>
<path d="M130.743 35.1464C130.91 35.3133 130.993 35.5492 130.993 35.8543V35.964L130.371 36.0255V35.8663C130.371 35.7445 130.343 35.6512 130.286 35.5887C130.229 35.5261 130.147 35.4943 130.042 35.4943C129.937 35.4943 129.854 35.5261 129.798 35.5887C129.741 35.6523 129.713 35.7445 129.713 35.8663V35.9212C129.713 36.0518 129.751 36.1791 129.829 36.3031C129.906 36.4271 130.049 36.5763 130.256 36.7519C130.553 37.0043 130.763 37.2315 130.885 37.4356C131.007 37.6386 131.068 37.8669 131.068 38.1193V38.3333C131.068 38.6384 130.981 38.8743 130.809 39.0411C130.636 39.2079 130.389 39.2913 130.067 39.2913C129.746 39.2913 129.499 39.2079 129.325 39.0411C129.152 38.8743 129.066 38.6384 129.066 38.3333V38.0469L129.689 37.9854V38.2905C129.689 38.5593 129.81 38.6932 130.055 38.6932C130.3 38.6932 130.422 38.5593 130.422 38.2905V38.15C130.422 38.0117 130.381 37.8801 130.3 37.756C130.219 37.632 130.072 37.4806 129.861 37.3017C129.568 37.0537 129.363 36.8288 129.244 36.6279C129.126 36.426 129.068 36.1999 129.068 35.9475V35.8565C129.068 35.5514 129.151 35.3154 129.318 35.1486C129.485 34.9818 129.723 34.8984 130.032 34.8984C130.342 34.8984 130.58 34.9818 130.747 35.1486L130.743 35.1464Z" fill="white"/>
<path d="M136.885 35.1882C137.07 35.3813 137.162 35.6447 137.162 35.9783V38.2115C137.162 38.5451 137.07 38.8085 136.885 39.0016C136.699 39.1947 136.445 39.2913 136.119 39.2913C135.793 39.2913 135.538 39.1947 135.353 39.0016C135.167 38.8085 135.075 38.5451 135.075 38.2115V35.9783C135.075 35.6447 135.167 35.3813 135.353 35.1882C135.538 34.995 135.793 34.8984 136.119 34.8984C136.445 34.8984 136.699 34.995 136.885 35.1882ZM135.823 35.6216C135.756 35.705 135.722 35.8257 135.722 35.9849V38.206C135.722 38.3651 135.756 38.4858 135.823 38.5692C135.889 38.6526 135.988 38.6943 136.119 38.6943C136.249 38.6943 136.348 38.6526 136.415 38.5692C136.482 38.4858 136.516 38.3651 136.516 38.206V35.9849C136.516 35.8257 136.482 35.705 136.415 35.6216C136.348 35.5382 136.249 35.4965 136.119 35.4965C135.988 35.4965 135.889 35.5382 135.823 35.6216Z" fill="white"/>
<path d="M143.123 35.1706C143.299 35.3517 143.388 35.603 143.388 35.9245V36.3086L142.766 36.3393V35.9914C142.766 35.6622 142.644 35.4976 142.4 35.4976C142.281 35.4976 142.191 35.5338 142.129 35.6074C142.065 35.6809 142.034 35.7884 142.034 35.9311V38.262C142.034 38.4046 142.066 38.5122 142.129 38.5857C142.191 38.6592 142.282 38.6954 142.4 38.6954C142.643 38.6954 142.766 38.5308 142.766 38.2016V37.7253L143.388 37.756V38.2685C143.388 38.5901 143.299 38.8414 143.123 39.0224C142.946 39.2035 142.698 39.2935 142.381 39.2935C142.064 39.2935 141.823 39.2046 141.649 39.0246C141.475 38.8458 141.387 38.5934 141.387 38.2674V35.9245C141.387 35.5986 141.475 35.3473 141.649 35.1673C141.823 34.9884 142.068 34.8984 142.381 34.8984C142.694 34.8984 142.945 34.9895 143.123 35.1695V35.1706Z" fill="white"/>
<path d="M148.245 39.2331H147.598V34.9609H148.245V39.2331Z" fill="white"/>
<path d="M154.671 39.2331H154.012L153.871 38.263H153.157L153.016 39.2331H152.37L153.109 34.9609H153.933L154.671 39.2331ZM153.506 35.8762L153.244 37.677H153.787L153.525 35.8762H153.506Z" fill="white"/>
<path d="M160.524 35.2397C160.707 35.4251 160.799 35.6918 160.799 36.0419V38.1533C160.799 38.5033 160.707 38.7711 160.524 38.9555C160.341 39.1409 160.074 39.2331 159.724 39.2331H158.797V34.9609H159.724C160.074 34.9609 160.341 35.0531 160.524 35.2386V35.2397ZM159.444 35.5601V38.6361H159.701C159.856 38.6361 159.97 38.5933 160.042 38.5077C160.116 38.4221 160.152 38.2904 160.152 38.1116V36.0858C160.152 35.9069 160.116 35.7741 160.042 35.6896C159.969 35.6051 159.855 35.5612 159.701 35.5612H159.444V35.5601Z" fill="white"/>
<path d="M166.832 35.1882C167.018 35.3813 167.11 35.6447 167.11 35.9783V38.2115C167.11 38.5451 167.018 38.8085 166.832 39.0016C166.647 39.1947 166.392 39.2913 166.066 39.2913C165.74 39.2913 165.486 39.1947 165.3 39.0016C165.115 38.8085 165.022 38.5451 165.022 38.2115V35.9783C165.022 35.6447 165.115 35.3813 165.3 35.1882C165.486 34.995 165.74 34.8984 166.066 34.8984C166.392 34.8984 166.647 34.995 166.832 35.1882ZM165.77 35.6216C165.703 35.705 165.669 35.8257 165.669 35.9849V38.206C165.669 38.3651 165.703 38.4858 165.77 38.5692C165.837 38.6526 165.935 38.6943 166.066 38.6943C166.197 38.6943 166.295 38.6526 166.362 38.5692C166.429 38.4858 166.463 38.3651 166.463 38.206V35.9849C166.463 35.8257 166.429 35.705 166.362 35.6216C166.295 35.5382 166.197 35.4965 166.066 35.4965C165.935 35.4965 165.837 35.5382 165.77 35.6216Z" fill="white"/>
<path d="M172.895 35.1464C173.061 35.3133 173.145 35.5492 173.145 35.8543V35.964L172.523 36.0255V35.8663C172.523 35.7445 172.494 35.6512 172.437 35.5887C172.38 35.5261 172.299 35.4943 172.193 35.4943C172.088 35.4943 172.006 35.5261 171.95 35.5887C171.893 35.6523 171.864 35.7445 171.864 35.8663V35.9212C171.864 36.0518 171.903 36.1791 171.98 36.3031C172.057 36.4271 172.2 36.5763 172.407 36.7519C172.705 37.0043 172.914 37.2315 173.036 37.4356C173.158 37.6386 173.219 37.8669 173.219 38.1193V38.3333C173.219 38.6384 173.133 38.8743 172.96 39.0411C172.787 39.2079 172.54 39.2913 172.219 39.2913C171.897 39.2913 171.65 39.2079 171.477 39.0411C171.303 38.8743 171.218 38.6384 171.218 38.3333V38.0469L171.84 37.9854V38.2905C171.84 38.5593 171.962 38.6932 172.207 38.6932C172.451 38.6932 172.573 38.5593 172.573 38.2905V38.15C172.573 38.0117 172.532 37.8801 172.451 37.756C172.37 37.632 172.223 37.4806 172.012 37.3017C171.719 37.0537 171.514 36.8288 171.396 36.6279C171.277 36.426 171.219 36.1999 171.219 35.9475V35.8565C171.219 35.5514 171.302 35.3154 171.469 35.1486C171.636 34.9818 171.874 34.8984 172.183 34.8984C172.493 34.8984 172.731 34.9818 172.898 35.1486L172.895 35.1464Z" fill="white"/>
<path d="M64.1457 29.5949H58.7959C57.4802 27.9071 56.1743 26.2259 54.8815 24.5491C53.5877 22.8733 52.2884 21.1855 50.9836 19.4868H56.2489L58.3076 22.1699C59.2294 20.8311 59.6914 19.2903 59.6914 17.5466C59.6914 15.4089 58.943 13.5477 57.4472 11.9609C55.9734 10.453 54.2132 9.69912 52.1655 9.69912C49.9937 9.69912 48.205 10.453 46.7992 11.9609C45.3594 13.4116 44.6395 15.2739 44.6395 17.5466C44.6395 20.1233 45.5339 22.1644 47.3227 23.6722C48.6275 24.7301 50.0958 25.3095 51.7265 25.4105L54.8651 29.3765C54.4492 29.4555 54.0157 29.5115 53.5657 29.5455C53.1158 29.5795 52.6483 29.596 52.1655 29.596C48.7229 29.596 45.8544 28.4152 43.5597 26.0525C41.2651 23.6229 40.1172 20.7872 40.1172 17.5477C40.1172 15.286 40.6571 13.2393 41.7369 11.4056C42.8398 9.54988 44.307 8.08156 46.1408 7.00173C47.9745 5.93287 49.9828 5.39844 52.1655 5.39844C55.518 5.39844 58.3131 6.57923 60.5518 8.94192C62.9144 11.3156 64.0952 14.1842 64.0952 17.5477C64.0952 20.6862 63.0933 23.4089 61.0917 25.7145L64.1457 29.596V29.5949Z" fill="white"/>
<path d="M82.7455 5.39453L82.864 5.73253L80.5013 11.8242L77.2278 20.1435H83.7584L82.1891 16.2115L84.5518 10.1199L92.0953 29.5932H87.2349L85.4462 24.6318H75.5411L73.5164 29.5932H68.791L78.1233 5.39453H82.7466H82.7455Z" fill="white"/>
<path d="M101.304 5.39563V25.1893H110.23V29.5932H96.8145V5.39453H101.303L101.304 5.39563Z" fill="white"/>
<path d="M119.302 5.39563V25.1893H128.228V29.5932H114.812V5.39453H119.301L119.302 5.39563Z" fill="white"/>
<path d="M137.936 29.5932H133.312V5.39453H142.172C144.32 5.39453 146.16 6.15393 147.689 7.67272C149.253 9.20249 150.035 11.0362 150.035 13.174V13.4944C150.035 15.6321 149.252 17.4659 147.689 18.9956C146.148 20.5034 144.308 21.2574 142.172 21.2574H137.936V29.5932ZM141.715 16.7515C142.683 16.7515 143.481 16.431 144.112 15.789C144.753 15.1591 145.073 14.3602 145.073 13.3923C145.073 12.4244 144.753 11.5981 144.112 10.9122C143.471 10.2373 142.672 9.89933 141.715 9.89933H137.936V16.7504H141.715V16.7515Z" fill="white"/>
<path d="M163.945 5.39453L164.063 5.73253L161.701 11.8242L158.427 20.1435H164.958L163.388 16.2115L165.751 10.1199L173.294 29.5932H168.434L166.645 24.6318H156.74L154.716 29.5932H149.99L159.322 5.39453H163.946H163.945Z" fill="white"/>
<path d="M8.10275 31.8995C8.19493 31.9697 8.28931 32.0377 8.38258 32.1058H8.38368L9.45584 30.2226C9.37024 30.1579 9.28793 30.0909 9.20453 30.0251C8.05885 29.1241 7.05035 28.0597 6.21194 26.8646C5.91455 26.441 5.6391 26.0032 5.3867 25.5488C4.37929 23.7359 3.7428 21.6904 3.57271 19.5121C3.54308 19.1269 3.52333 18.7384 3.52333 18.3455C3.52333 10.1414 10.1735 3.49122 18.3776 3.49122C20.4199 3.49122 22.3645 3.90384 24.1357 4.64897L25.2353 2.7801C23.137 1.8539 20.8182 1.33594 18.3776 1.33594C8.98396 1.33594 1.36914 8.95185 1.36914 18.3455C1.36914 21.8232 2.41496 25.0561 4.207 27.7502C4.207 27.7502 4.207 27.7513 4.207 27.7524C4.47147 28.1507 4.7546 28.5348 5.0509 28.9091C5.93869 30.0284 6.96365 31.0336 8.10275 31.8984V31.8995Z" fill="white"/>
<path d="M30.4253 6.3386L32.72 2.42969H27.2604L26.6492 3.48319L25.5682 5.34656L10.6645 31.042L9.58361 32.9065L6.45714 38.2958L5.57812 39.8267H10.7655L13.7658 34.7161L14.8994 32.7858L29.2917 8.27112C31.7378 10.9191 33.2335 14.4571 33.2335 18.3452C33.2335 26.5493 26.5833 33.1995 18.3792 33.1995C17.8953 33.1995 17.4168 33.1743 16.9449 33.1293L15.7905 35.1584C16.6344 35.2879 17.4991 35.3537 18.3792 35.3537C27.7729 35.3537 35.3877 27.7389 35.3877 18.3452C35.3877 13.6582 33.4914 9.4146 30.4253 6.3386Z" fill="white"/>
<path d="M8.11097 11.4805L3.57324 19.5156C3.74224 21.6928 4.37983 23.7395 5.38723 25.5523C7.94306 21.1046 13.7593 11.4816 13.7593 11.4816H8.11097V11.4805Z" fill="white"/>
<path d="M17.278 7.375L6.21191 26.8625C7.05032 28.0576 8.05883 29.1221 9.20451 30.023C9.28791 30.0889 9.37021 30.1569 9.45581 30.2205L20.5055 10.8164L22.4654 7.375H17.278Z" fill="white"/>
</g>
<defs>
<clipPath id="clip0_549_336">
<rect width="173.333" height="40" fill="white"/>
</clipPath>
</defs>
</svg>
